<?xml version="1.0" encoding="utf-8"?>
<!-- Generator: Adobe Illustrator 21.0.0, SVG Export Plug-In . SVG Version: 6.00 Build 0)  -->
<svg version="1.1" id="图层_1" xmlns="http://www.w3.org/2000/svg" xmlns:xlink="http://www.w3.org/1999/xlink" x="0px" y="0px"
	 viewBox="0 0 16 16" style="enable-background:new 0 0 16 16;" xml:space="preserve">
<path d="M15.5,6.9h-4.3c-0.4-1.4-1.7-2.4-3.3-2.4c-1.5,0-2.8,1-3.3,2.4H2c0.7-2.6,3.4-4.5,6.7-4.5S14.8,4.3,15.5,6.9z"/>
<path d="M11.3,12.4l0.6,1.5c0,0,0,0,0,0.1c0,0.1-0.1,0.2-0.2,0.2l-0.1-0.1l-1.7-1c-0.8,0.3-1.8,0.5-2.7,0.5c-3.5,0-6.3-2.1-6.8-4.8
	h4.2v2.7c0,0,0,0.1,0,0.1c0,0.4,0.4,0.8,0.8,0.8c0.4,0,0.8-0.4,0.8-0.8c0,0,0,0,0,0h0v-0.9c0.5,0.3,1.1,0.5,1.8,0.5
	c1.5,0,2.8-1,3.3-2.4H14C13.7,10.2,12.7,11.5,11.3,12.4z"/>
<path d="M6.2,7.7v0.3C6.1,8,6.1,7.9,6.2,7.7L6.2,7.7L6.2,7.7z"/>
<path d="M9.8,7.9c0,0.4-0.1,0.7-0.3,1C9.1,9.4,8.6,9.7,7.9,9.7c-0.6,0-1.2-0.3-1.5-0.8C6.3,8.7,6.2,8.5,6.2,8.2V7.9h0
	c0-0.4,0.1-0.7,0.3-1c0.3-0.5,0.9-0.8,1.5-0.8c0.6,0,1.2,0.3,1.5,0.8C9.7,7.2,9.8,7.5,9.8,7.9z"/>
<path d="M6.1,7.7L6.1,7.7c0,0.1,0,0.2,0,0.3L6.1,7.7L6.1,7.7z"/>
<path d="M6.2,7.7v0.3C6.1,8,6.1,7.9,6.2,7.7L6.2,7.7L6.2,7.7z"/>
</svg>
