<svg xmlns="http://www.w3.org/2000/svg" viewBox="0 0 260 76"><defs><style>.cls-1{fill:#00acf8;}.cls-2{font-size:48px;font-family:STYuanti-SC-Regular, Yuanti SC;}</style></defs><title>拼微客(www.pv138.com)</title><g id="图层_2" data-name="图层 2"><g id="拼微客_www.pv138.com_" data-name="拼微客(www.pv138.com)"><path class="cls-1" d="M97.56,29H70a22,22,0,0,0-42,0H10.44C14.65,12.44,32.55,0,54,0S93.35,12.44,97.56,29Z"/><path class="cls-1" d="M70.71,64.7l3.68,9.85A1,1,0,0,1,73.5,76l-.86-.51L61.59,69A52.7,52.7,0,0,1,44,72C21.7,72,3.23,58.55,0,41H27V58.42a5.07,5.07,0,0,0,0,.68,5.13,5.13,0,0,0,10.26,0v0h.22V53.2A22,22,0,0,0,70,41H88C86.22,50.66,79.82,59.08,70.71,64.7Z"/><path class="cls-1" d="M37.42,34.48v2.26a11.4,11.4,0,0,1-.21-2.2v-.06Z"/><path class="cls-1" d="M60.72,35.54a11.75,11.75,0,0,1-23.3,2.2V35.48h-.21a11.76,11.76,0,0,1,23.51.06Z"/><path class="cls-1" d="M37.21,34.48v.06a11.4,11.4,0,0,0,.21,2.2V34.48Z"/><path class="cls-1" d="M37.42,34.48v2.26a11.4,11.4,0,0,1-.21-2.2v-.06Z"/><text class="cls-2" transform="translate(116 51.5)">拼微客</text></g></g></svg>